<svg version="1.1" xmlns="http://www.w3.org/2000/svg" xmlns:xlink="http://www.w3.org/1999/xlink" width="339.33934" height="339.33934" viewBox="0,0,339.33934,339.33934"><g transform="translate(-150.33033,-10.33033)"><g data-paper-data="{&quot;isPaintingLayer&quot;:true}" fill-rule="nonzero" stroke="none" stroke-linecap="butt" stroke-linejoin="miter" stroke-miterlimit="10" stroke-dasharray="" stroke-dashoffset="0" style="mix-blend-mode: normal"><path d="M150.33033,349.66967v-339.33934h339.33934v339.33934z" fill="#ffffff" stroke-width="0"/><path d="M339.54246,40.7742c3.97966,0 7.89713,0.18655 11.81461,0.49746c4.35275,0.37309 7.95931,3.54438 8.89205,7.77277c0.93273,4.22839 -0.99491,8.58113 -4.78802,10.75751c-33.14308,18.77901 -55.52865,54.40937 -55.52865,95.32521c0,60.44104 48.87516,109.44056 109.12965,109.44056c6.40476,0 12.62297,-0.55964 18.71682,-1.61674c4.29057,-0.74619 8.58113,1.43019 10.57096,5.28548c1.98983,3.85529 1.18146,8.58113 -1.92765,11.62806c-25.0594,24.3754 -59.19739,39.42347 -96.87977,39.42347c-76.79494,0 -138.97707,-62.36868 -138.97707,-139.28798c0,-76.9193 62.18214,-139.28798 138.97707,-139.28798z" fill="#000000" stroke-width="1"/></g></g></svg>