<svg version="1.1" xmlns="http://www.w3.org/2000/svg" xmlns:xlink="http://www.w3.org/1999/xlink" width="339.33934" height="339.33934" viewBox="0,0,339.33934,339.33934"><g transform="translate(-150.33033,-10.33033)"><g data-paper-data="{&quot;isPaintingLayer&quot;:true}" fill-rule="nonzero" stroke="none" stroke-linecap="butt" stroke-linejoin="miter" stroke-miterlimit="10" stroke-dasharray="" stroke-dashoffset="0" style="mix-blend-mode: normal"><path d="M150.33033,349.66967v-339.33934h339.33934v339.33934z" fill="#000000" stroke-width="0"/><path d="M377.55126,41.00415c2.72755,1.14557 4.69138,3.60036 5.23689,6.49156l10.85564,58.86049l58.86049,10.80109c2.8912,0.54551 5.34599,2.50934 6.49156,5.23689c1.14557,2.72755 0.81826,5.83695 -0.87282,8.29175l-33.98525,49.31407l33.98525,49.25952c1.69108,2.45479 2.01839,5.5642 0.87282,8.29175c-1.14557,2.72755 -3.60036,4.69138 -6.49156,5.23689l-58.86049,10.85564l-10.85564,58.86049c-0.54551,2.8912 -2.50934,5.34599 -5.23689,6.49156c-2.72755,1.14557 -5.83695,0.81826 -8.29175,-0.87282l-49.25952,-33.98525l-49.25952,33.98525c-2.45479,1.69108 -5.5642,2.01839 -8.29175,0.87282c-2.72755,-1.14557 -4.69138,-3.60036 -5.23689,-6.49156l-10.85564,-58.86049l-58.86049,-10.85564c-2.8912,-0.54551 -5.34599,-2.50934 -6.49156,-5.23689c-1.14557,-2.72755 -0.81826,-5.83695 0.87282,-8.29175l33.98525,-49.25952l-33.98525,-49.25952c-1.69108,-2.45479 -2.01839,-5.5642 -0.87282,-8.29175c1.14557,-2.72755 3.60036,-4.69138 6.49156,-5.23689l58.86049,-10.85564l10.85564,-58.86049c0.54551,-2.8912 2.50934,-5.34599 5.23689,-6.49156c2.72755,-1.14557 5.83695,-0.81826 8.29175,0.87282l49.25952,33.98525l49.25952,-33.98525c2.45479,-1.69108 5.5642,-2.01839 8.29175,-0.87282zM267.63108,180c0,-28.92256 23.44637,-52.36892 52.36892,-52.36892c28.92256,0 52.36892,23.44637 52.36892,52.36892c0,28.92256 -23.44637,52.36892 -52.36892,52.36892c-28.92256,0 -52.36892,-23.44637 -52.36892,-52.36892zM389.82523,180c0,-38.56341 -31.26182,-69.82523 -69.82523,-69.82523c-38.56341,0 -69.82523,31.26182 -69.82523,69.82523c0,38.56341 31.26182,69.82523 69.82523,69.82523c38.56341,0 69.82523,-31.26182 69.82523,-69.82523z" fill="#ffffff" stroke-width="1"/></g></g></svg>